<?xml version="1.0"?>
<svg xmlns="http://www.w3.org/2000/svg" xmlns:xlink="http://www.w3.org/1999/xlink" xmlns:svgjs="http://svgjs.com/svgjs" version="1.1" width="512" height="512" x="0" y="0" viewBox="0 0 495.009 495.009" style="enable-background:new 0 0 512 512" xml:space="preserve" class=""><g><g xmlns="http://www.w3.org/2000/svg"><path d="m36.569 425.243c-4.438 4.438-6.883 10.34-6.883 16.616 0 6.277 2.445 12.178 6.883 16.616 4.582 4.582 10.598 6.872 16.617 6.872 6.017 0 12.036-2.292 16.617-6.872 4.438-4.439 6.883-10.339 6.883-16.616 0-6.276-2.444-12.177-6.883-16.616-9.163-9.161-24.072-9.161-33.234 0zm22.627 22.625c-3.314 3.314-8.707 3.314-12.021 0-1.605-1.605-2.489-3.739-2.489-6.009s.884-4.404 2.49-6.009c1.657-1.657 3.833-2.486 6.01-2.486s4.354.829 6.011 2.485c1.605 1.605 2.489 3.74 2.489 6.009-.001 2.271-.885 4.405-2.49 6.01z" fill="#6aca44" data-original="#000000" style="" class=""/><path d="m458.458 425.217c-9.162-9.161-24.071-9.161-33.233 0-4.439 4.438-6.884 10.339-6.884 16.616s2.445 12.178 6.883 16.616c4.582 4.581 10.598 6.871 16.617 6.871 6.017 0 12.036-2.291 16.617-6.871 4.438-4.438 6.883-10.339 6.883-16.616 0-6.276-2.444-12.177-6.883-16.616zm-10.606 22.625c-3.314 3.314-8.707 3.315-12.022 0-1.605-1.605-2.489-3.739-2.489-6.009s.884-4.404 2.49-6.009c1.657-1.657 3.833-2.485 6.01-2.485s4.354.828 6.011 2.485c1.605 1.605 2.489 3.739 2.489 6.009s-.884 4.404-2.489 6.009z" fill="#6aca44" data-original="#000000" style="" class=""/><path d="m477.104 401.551-168.464-156.71c1.796-.94 3.858-1.238 5.826-.742 29.71 7.451 61.597-1.35 83.22-22.97l90.19-90.181c9.07-9.068 9.552-23.448 1.098-32.736-4.375-4.807-10.355-7.538-16.839-7.691-6.401-.156-12.651 2.355-17.172 6.875l-56.569 56.562c-3.338 3.338-8.737 3.612-12.036.61-1.745-1.588-2.736-3.753-2.792-6.097-.055-2.346.828-4.552 2.487-6.211l56.568-56.562c9.07-9.068 9.552-23.448 1.098-32.737-4.375-4.807-10.355-7.538-16.839-7.691-6.383-.142-12.652 2.356-17.172 6.875l-56.568 56.562c-3.337 3.338-8.737 3.612-12.037.61-1.745-1.588-2.736-3.753-2.792-6.097-.055-2.347.828-4.553 2.487-6.211l56.569-56.562c9.069-9.069 9.551-23.449 1.097-32.737-4.375-4.807-10.355-7.538-16.839-7.691-6.398-.145-12.652 2.355-17.172 6.876l-90.51 90.5c-21.622 21.621-30.425 53.505-22.973 83.212.734 2.923-.246 6.066-2.552 8.212l-28.297-26.322c-2.331-2.167-3.316-5.347-2.572-8.297 7.498-29.738-1.295-61.661-22.948-83.311l-44.519-44.514c-34.255-34.252-89.874-34.78-123.984-1.177-16.742 16.495-26.01 38.516-26.097 62.007-.087 23.494 9.015 45.58 25.628 62.192l45.229 45.224c21.652 21.649 53.577 30.442 83.319 22.945 2.951-.745 6.132.242 8.301 2.573l24.031 25.828-59.863 55.255c-3.044 2.81-3.234 7.555-.424 10.598 1.479 1.602 3.493 2.413 5.513 2.413 1.819 0 3.643-.658 5.085-1.989l59.907-55.296 39.954 42.942-96.836 104.888-49.574-49.568 24.57-22.679c3.044-2.81 3.234-7.554.424-10.598-2.809-3.043-7.554-3.233-10.598-.424l-86.734 80.058c-18 16.044-23.042 42.297-12.256 63.869 5.144 10.286 13.643 18.784 23.93 23.927 7.595 3.797 15.766 5.633 23.871 5.632 14.919-.001 29.606-6.223 40.003-17.887l153.446-166.205 53.881 57.91c2.821 3.033 7.567 3.203 10.6.382s3.204-7.567.382-10.6l-138.331-148.674c-5.896-6.338-14.691-8.982-22.948-6.9-24.653 6.212-51.108-1.069-69.047-19.007l-45.229-45.224c-13.765-13.763-21.306-32.063-21.234-51.529.072-19.463 7.752-37.709 21.625-51.377 28.26-27.842 74.399-27.349 102.85 1.099l44.518 44.514c17.939 17.937 25.224 44.391 19.009 69.037-2.082 8.259.562 17.052 6.901 22.947l195.082 181.471-50.037 50.031-22.716-24.414c-2.821-3.033-7.567-3.204-10.6-.382-3.033 2.821-3.204 7.567-.382 10.6l80.301 86.306c10.398 11.658 25.078 17.877 39.995 17.876 8.103 0 16.278-1.836 23.871-5.632 10.287-5.143 18.786-13.641 23.93-23.927 10.786-21.568 5.749-47.814-12.244-63.859zm-347.443 14.257-11.54 12.499-51.382-51.376 12.5-11.538zm-47.247 51.176c-.032.034-.063.069-.095.104-11.544 12.985-30.463 16.629-46.004 8.858-7.404-3.702-13.52-9.817-17.222-17.22-7.77-15.54-4.127-34.454 8.859-45.997.035-.031.07-.063.104-.095l27.65-25.522 52.23 52.224zm183.104-290.026c-6.27-24.994.844-50.771 19.03-68.955l90.509-90.5c1.66-1.659 3.859-2.524 6.213-2.487 2.344.055 4.51 1.046 6.099 2.792 3.001 3.298 2.728 8.695-.609 12.033l-56.569 56.562c-4.521 4.52-7.027 10.779-6.876 17.172.153 6.484 2.884 12.463 7.692 16.838 9.29 8.452 23.669 7.97 32.738-1.097l56.568-56.562c1.659-1.659 3.856-2.539 6.213-2.487 2.345.055 4.51 1.046 6.099 2.792 3.002 3.298 2.728 8.695-.61 12.033l-56.568 56.562c-4.521 4.52-7.027 10.779-6.876 17.171.152 6.483 2.884 12.463 7.691 16.838 9.29 8.452 23.67 7.97 32.738-1.097l56.569-56.563c1.659-1.659 3.869-2.554 6.212-2.487 2.345.055 4.511 1.046 6.099 2.792 3.001 3.297 2.728 8.695-.61 12.032l-90.19 90.181c-18.186 18.185-43.966 25.299-68.964 19.028-7.281-1.824-14.961.031-20.702 4.85l-38.009-35.357c5.747-5.851 8.091-14.201 6.113-22.084zm150.459 188.218 12.454 11.585-51.67 51.665-11.586-12.453zm59.956 93.525c-3.702 7.403-9.818 13.519-17.221 17.22-15.543 7.769-34.46 4.127-46.005-8.858-.038-.042-.076-.084-.114-.126l-25.607-27.522 52.436-52.43 27.526 25.605c.042.039.083.077.126.115 12.987 11.541 16.63 30.456 8.859 45.996z" fill="#6aca44" data-original="#000000" style="" class=""/><path d="m104.117 161.415c-2.93-2.929-7.678-2.928-10.607.001s-2.928 7.678 0 10.607c10.82 10.818 25.032 16.227 39.244 16.227s28.424-5.409 39.244-16.227c10.482-10.482 16.256-24.418 16.256-39.241s-5.773-28.759-16.256-39.241c-2.93-2.929-7.678-2.928-10.607.001s-2.928 7.678.001 10.607c7.649 7.648 11.862 17.817 11.862 28.634 0 10.816-4.213 20.985-11.862 28.633-15.79 15.789-41.484 15.789-57.275-.001z" fill="#6aca44" data-original="#000000" style="" class=""/></g></g></svg>
