<?xml version="1.0"?>
<svg xmlns="http://www.w3.org/2000/svg" xmlns:xlink="http://www.w3.org/1999/xlink" xmlns:svgjs="http://svgjs.com/svgjs" version="1.1" width="512" height="512" x="0" y="0" viewBox="0 0 512 512" style="enable-background:new 0 0 512 512" xml:space="preserve"><g><g xmlns="http://www.w3.org/2000/svg"><path d="m512 222.583c0-8.547-6.953-15.5-15.5-15.5h-2.627l-25.762-109.49c-4.34-18.445-20.605-31.327-39.553-31.327h-345.116c-18.949 0-35.213 12.882-39.553 31.327l-25.762 109.49h-2.627c-8.547 0-15.5 6.953-15.5 15.5v17.417c0 6.177 2.399 11.801 6.31 16-3.911 4.199-6.31 9.823-6.31 16v17.417c0 8.547 6.953 15.5 15.5 15.5h2.627l12.651 53.767c.813 3.455 3.893 5.784 7.295 5.784.569 0 1.146-.065 1.724-.201 4.032-.949 6.532-4.986 5.583-9.019l-11.842-50.331h444.927l-24.955 106.054c-2.738 11.636-12.998 19.762-24.952 19.762h-24.241v-42.2c0-13.27-10.796-24.066-24.067-24.066s-24.067 10.796-24.067 24.066v42.2h-34.7v-42.2c0-13.27-10.796-24.066-24.067-24.066-13.27 0-24.066 10.796-24.066 24.066v42.2h-34.7v-42.2c0-13.27-10.796-24.066-24.066-24.066s-24.067 10.796-24.067 24.066v42.2h-34.7v-42.2c0-13.27-10.796-24.066-24.067-24.066s-24.067 10.796-24.067 24.066v42.2h-24.241c-11.954 0-22.214-8.126-24.952-19.762l-6.052-25.723c-.948-4.032-4.984-6.53-9.019-5.583-4.032.949-6.532 4.986-5.583 9.019l6.052 25.723c4.34 18.445 20.604 31.327 39.553 31.327h345.116c18.949 0 35.213-12.882 39.553-31.327l25.762-109.49h2.627c8.547 0 15.5-6.953 15.5-15.5v-17.417c0-6.177-2.399-11.801-6.31-16 3.911-4.199 6.31-9.823 6.31-16v-17.417zm-389.317 208.15v-42.2c0-4.999 4.067-9.066 9.067-9.066 4.999 0 9.067 4.067 9.067 9.066v42.2zm82.834 0v-42.2c0-4.999 4.067-9.066 9.067-9.066 4.999 0 9.066 4.067 9.066 9.066v42.2zm82.833 0v-42.2c0-4.999 4.067-9.066 9.066-9.066 5 0 9.067 4.067 9.067 9.066v42.2zm82.833 0v-42.2c0-4.999 4.067-9.066 9.067-9.066 4.999 0 9.067 4.067 9.067 9.066v42.2zm18.134-349.466v42.2c0 4.999-4.067 9.066-9.067 9.066s-9.067-4.067-9.067-9.066v-42.2zm-82.834 0v42.2c0 4.999-4.067 9.066-9.067 9.066-4.999 0-9.066-4.067-9.066-9.066v-42.2zm-82.833 0v42.2c0 4.999-4.067 9.066-9.066 9.066s-9.067-4.067-9.067-9.066v-42.2zm-82.833 0v42.2c0 4.999-4.067 9.066-9.067 9.066s-9.067-4.067-9.067-9.066v-42.2zm-125.817 141.316c0-.276.224-.5.5-.5h101.25c4.142 0 7.5-3.358 7.5-7.5s-3.358-7.5-7.5-7.5h-83.213l24.953-106.054c2.738-11.636 12.998-19.762 24.952-19.762h24.241v42.2c0 13.27 10.796 24.066 24.067 24.066 13.27 0 24.067-10.796 24.067-24.066v-42.2h34.7v42.2c0 13.27 10.796 24.066 24.067 24.066 13.27 0 24.066-10.796 24.066-24.066v-42.2h34.7v42.2c0 13.27 10.796 24.066 24.066 24.066 13.271 0 24.067-10.796 24.067-24.066v-42.2h34.7v42.2c0 13.27 10.796 24.066 24.067 24.066 13.27 0 24.067-10.796 24.067-24.066v-42.2h24.241c11.954 0 22.214 8.126 24.952 19.762l24.954 106.055h-165.264v-9.633c0-12.958-10.542-23.5-23.5-23.5h-67.4c-12.958 0-23.5 10.542-23.5 23.5v9.633h-52.05c-4.142 0-7.5 3.358-7.5 7.5s3.358 7.5 7.5 7.5h341.159c.006 0 .011.002.017.002.008 0 .017-.002.025-.002h8.548c.276 0 .5.224.5.5v17.416c0 4.687-3.813 8.5-8.5 8.5h-465c-4.687 0-8.5-3.813-8.5-8.5v-17.417zm283.2-15.5h-84.4v-9.633c0-4.687 3.813-8.5 8.5-8.5h67.4c4.687 0 8.5 3.813 8.5 8.5zm198.8 82.334c0 .276-.224.5-.5.5h-481c-.276 0-.5-.224-.5-.5v-17.417c0-4.687 3.813-8.5 8.5-8.5h465c4.687 0 8.5 3.813 8.5 8.5z" fill="#6aca44" data-original="#000000" style=""/></g></g></svg>
