<?xml version="1.0" encoding="utf-8"?>
<!-- Generator: Adobe Illustrator 22.0.1, SVG Export Plug-In . SVG Version: 6.00 Build 0)  -->
<svg version="1.1" id="Capa_1" xmlns:svgjs="http://svgjs.com/svgjs"
	 xmlns="http://www.w3.org/2000/svg" xmlns:xlink="http://www.w3.org/1999/xlink" x="0px" y="0px" viewBox="0 0 341.3 512"
	 style="enable-background:new 0 0 341.3 512;" xml:space="preserve">
<style type="text/css">
	.st0{fill:#6ACA44;}
</style>
<g>
	<path class="st0" d="M324.3,119.5c9.4,0,17.1-7.6,17.1-17.1V68.3c0-9.4-7.6-17.1-17.1-17.1h-28.9L272.2,4.7
		c-1.4-2.9-4.4-4.7-7.6-4.7H76.8c-3.2,0-6.2,1.8-7.6,4.7L45.9,51.2H17.1C7.6,51.2,0,58.8,0,68.3v34.1c0,9.4,7.6,17.1,17.1,17.1h9.2
		l5.2,59.7h-5.9c-2.4,0-4.7,1-6.4,2.8c-1.6,1.8-2.4,4.2-2.1,6.6l17.1,153.6c0.5,4.3,4.1,7.6,8.5,7.6h3.7l12.7,146.5
		c0.7,8.8,8.1,15.7,17,15.6h189.1c8.9,0.1,16.3-6.7,17-15.6L295,349.9h3.7c4.3,0,8-3.3,8.5-7.6l17.1-153.6c0.3-2.4-0.5-4.8-2.1-6.6
		c-1.6-1.8-3.9-2.8-6.4-2.8h-5.9l5.2-59.7H324.3z M82.1,17.1h177.2l17.1,34.1H65L82.1,17.1z M17.1,68.3h307.2l0,34.1H17.1V68.3z
		 M35.1,196.3h25.5l15.2,136.5H50.3L35.1,196.3z M212.8,196.3l-7.6,136.5h-26.1V196.3H212.8z M222.4,332.8l7.6-136.5h33.6
		l-15.2,136.5H222.4z M162.1,332.8h-26.1l-7.6-136.5h33.6V332.8z M111.4,196.3l7.6,136.5H93L77.8,196.3H111.4z M265.2,494.9H76.1
		L63.5,349.9h214.3L265.2,494.9z M291,332.8h-25.5l15.2-136.5h25.5L291,332.8z M292.7,179.2H48.6l-5.2-59.7h254.5L292.7,179.2z"/>
</g>
</svg>
